<svg version="1.1" id="Calque_1" xmlns="http://www.w3.org/2000/svg" x="0" y="0" viewBox="0 0 1015 239" xml:space="preserve"><style>.st0{fill:#d9be77}</style><path class="st0" d="M367.15 98.58h1.31v.82h-17.8v-.74h1.23c.93 0 1.72-.37 2.38-1.11s.93-1.54.82-2.42l-3.69-41.25-17.22 38.3c-1.53 3.34-2.46 6.12-2.79 8.36h-.82l-20.99-45.51-3.53 40.1c-.11.87.16 1.68.82 2.42.66.74 1.42 1.11 2.3 1.11h1.31v.74h-15.91v-.82h1.31c1.53 0 2.86-.46 3.98-1.39 1.12-.93 1.79-2.19 2.01-3.77l6.15-52.56h.82l22.88 49.45 22.39-49.45h.74l6.31 52.56c.27 2.19 1.37 3.72 3.28 4.59.82.38 1.72.57 2.71.57zM453 98.58h.66v.82h-18.45v-.82h.74c1.15 0 2.01-.37 2.58-1.11.57-.74.86-1.44.86-2.09 0-.66-.11-1.31-.33-1.97l-5.25-13.94h-22.14l-5.49 14.02c-.22.66-.33 1.3-.33 1.93 0 .63.29 1.31.86 2.05.57.74 1.44 1.11 2.58 1.11h.74v.82h-16.48v-.82h.74c1.37 0 2.71-.44 4.02-1.31 1.31-.87 2.38-2.16 3.2-3.85l18.53-44.12c2.02-4.43 3.03-7.24 3.03-8.45h.74l21.98 52.56c.76 1.7 1.8 2.98 3.12 3.85 1.3.89 2.67 1.32 4.09 1.32zm-40.34-21.57h20.17l-9.84-26.32-10.33 26.32zM499.09 44.54h-5.25v48.87c0 1.42.51 2.64 1.52 3.65 1.01 1.01 2.26 1.52 3.73 1.52h.98l.08.82H482.2v-.82h1.07c1.42 0 2.64-.49 3.65-1.48 1.01-.98 1.54-2.19 1.6-3.61v-45.5c-.05-1.42-.59-2.64-1.6-3.65-1.01-1.01-2.23-1.52-3.65-1.52h-1.07V42h22.14c4.97 0 8.88 1.38 11.73 4.14 2.84 2.76 4.26 6.34 4.26 10.74s-1.35 8.2-4.06 11.4c-2.71 3.2-6 4.8-9.88 4.8.82.38 1.79 1.13 2.91 2.25a28.38 28.38 0 012.99 3.49c4.7 6.72 7.76 10.87 9.18 12.42 1.42 1.56 2.43 2.62 3.03 3.2.6.57 1.26 1.14 1.97 1.68.71.55 1.42.98 2.13 1.31 1.58.77 3.28 1.15 5.08 1.15v.82h-4.51c-2.35 0-4.54-.42-6.56-1.27-2.02-.85-3.54-1.72-4.55-2.62-1.01-.9-1.89-1.78-2.62-2.62-.74-.85-2.78-3.68-6.11-8.49-3.34-4.81-5.28-7.56-5.82-8.24-.55-.68-1.12-1.35-1.72-2.01-1.75-1.86-3.5-2.79-5.25-2.79v-.82c.44.06 1.01.08 1.72.08s1.58-.03 2.62-.08c6.78-.16 11.04-3.01 12.79-8.53.33-1.09.49-2.12.49-3.07v-1.85c-.11-3.66-1.07-6.61-2.87-8.86-1.8-2.24-4.24-3.44-7.3-3.61-1.29-.05-2.93-.08-4.9-.08zM576.74 44.54h-5.25v48.87c0 1.42.51 2.64 1.52 3.65 1.01 1.01 2.26 1.52 3.73 1.52h.98l.08.82h-17.96v-.82h1.07c1.42 0 2.64-.49 3.65-1.48 1.01-.98 1.54-2.19 1.6-3.61v-45.5c-.05-1.42-.59-2.64-1.6-3.65-1.01-1.01-2.23-1.52-3.65-1.52h-1.07V42h22.14c4.97 0 8.88 1.38 11.73 4.14 2.84 2.76 4.26 6.34 4.26 10.74s-1.35 8.2-4.06 11.4c-2.71 3.2-6 4.8-9.88 4.8.82.38 1.79 1.13 2.91 2.25a28.38 28.38 0 012.99 3.49c4.7 6.72 7.76 10.87 9.18 12.42 1.42 1.56 2.43 2.62 3.03 3.2.6.57 1.26 1.14 1.97 1.68.71.55 1.42.98 2.13 1.31 1.58.77 3.28 1.15 5.08 1.15v.82h-4.51c-2.35 0-4.54-.42-6.56-1.27-2.02-.85-3.54-1.72-4.55-2.62-1.01-.9-1.89-1.78-2.62-2.62-.74-.85-2.78-3.68-6.11-8.49-3.34-4.81-5.28-7.56-5.82-8.24-.55-.68-1.12-1.35-1.72-2.01-1.75-1.86-3.5-2.79-5.25-2.79v-.82c.44.06 1.01.08 1.72.08s1.58-.03 2.62-.08c6.78-.16 11.04-3.01 12.79-8.53.33-1.09.49-2.12.49-3.07v-1.85c-.11-3.66-1.07-6.61-2.87-8.86-1.8-2.24-4.24-3.44-7.3-3.61-1.28-.05-2.92-.08-4.89-.08zM691.3 98.58h.66v.82h-18.45v-.82h.74c1.15 0 2.01-.37 2.58-1.11.57-.74.86-1.44.86-2.09 0-.66-.11-1.31-.33-1.97l-5.25-13.94h-22.14l-5.49 14.02c-.22.66-.33 1.3-.33 1.93 0 .63.29 1.31.86 2.05.57.74 1.44 1.11 2.58 1.11h.74v.82h-16.48v-.82h.74c1.37 0 2.71-.44 4.02-1.31 1.31-.87 2.38-2.16 3.2-3.85l18.53-44.12c2.02-4.43 3.03-7.24 3.03-8.45h.74l21.98 52.56c.76 1.7 1.8 2.98 3.12 3.85 1.3.89 2.67 1.32 4.09 1.32zm-40.34-21.57h20.17l-9.84-26.32-10.33 26.32zM737.39 98.58h1.07v.82H720.5v-.82h1.07c1.42 0 2.64-.5 3.65-1.52 1.01-1.01 1.54-2.23 1.6-3.65V47.9c-.06-1.42-.59-2.62-1.6-3.61-1.01-.98-2.23-1.48-3.65-1.48h-1.07V42h17.96v.82h-1.07c-1.42 0-2.64.49-3.65 1.48-1.01.98-1.55 2.19-1.6 3.61v45.51c0 1.42.52 2.64 1.56 3.65 1.03 1.01 2.26 1.51 3.69 1.51zm32.96.82h-3.53c-5.58 0-9.68-1.56-12.3-4.67l-19.76-23.86 19.35-24.27c.44-.55.66-1.04.66-1.48 0-.44-.08-.82-.25-1.15-.44-.82-1.23-1.23-2.38-1.23h-.82V42h17.3v.74h-.33c-3.61 0-6.56 1.29-8.86 3.85L740.18 68.9l22.39 26.32c2.19 2.19 4.78 3.31 7.79 3.36v.82zM800.04 98.58c1.42 0 2.64-.5 3.65-1.52 1.01-1.01 1.54-2.23 1.6-3.65V47.49c-.16-1.31-.74-2.42-1.72-3.32-.98-.9-2.16-1.35-3.53-1.35h-.98l-.09-.82H823c1.69 0 3.54-.16 5.54-.49 2-.33 3.4-.66 4.22-.98v10.33h-.82v-1.48c0-1.31-.45-2.43-1.35-3.36-.9-.93-1.98-1.42-3.24-1.48h-16.73v25.34h13.86a4.08 4.08 0 002.79-1.23c.76-.76 1.15-1.72 1.15-2.87v-1.15h.82v12.96h-.82v-1.23c0-1.09-.37-2.02-1.11-2.79-.74-.76-1.65-1.18-2.75-1.23h-13.94v24.52h11.73c4.05 0 7.13-.9 9.27-2.71 2.13-1.8 3.91-4.48 5.33-8.04h.82L833 99.4h-34.03v-.82h1.07zM877.41 92.27c-5.44-5.47-8.16-12.67-8.16-21.61s2.72-16.14 8.16-21.61c5.44-5.47 12.64-8.2 21.61-8.2 7.33 0 13.8 1.86 19.44 5.58l1.64 11.56h-.74c-1.2-4.7-3.64-8.32-7.3-10.87-3.66-2.54-8.01-3.81-13.04-3.81-7.16 0-12.89 2.49-17.18 7.46-4.29 4.98-6.44 11.56-6.44 19.76s2.12 14.8 6.36 19.8 9.83 7.59 16.77 7.75c6.12 0 11.23-1.67 15.33-5 4.43-3.61 7.11-9.48 8.04-17.63h.66l-.98 12.88c-4.98 8.15-12.66 12.22-23.04 12.22-8.65-.05-15.69-2.82-21.13-8.28zM996.11 98.58c1.42 0 2.64-.49 3.65-1.48 1.01-.98 1.54-2.19 1.6-3.61V72.26h-33.54v21.16c0 1.42.52 2.64 1.56 3.65 1.04 1.01 2.27 1.52 3.69 1.52h1.07v.82h-17.96v-.82h1.07c1.42 0 2.64-.5 3.65-1.52 1.01-1.01 1.54-2.23 1.6-3.65V47.9c-.06-1.42-.59-2.62-1.6-3.61-1.01-.98-2.23-1.48-3.65-1.48h-1.07V42h17.96v.82h-1.07c-1.42 0-2.64.49-3.65 1.48-1.01.98-1.55 2.19-1.6 3.61V69.8h33.54V47.9c-.06-1.97-.93-3.44-2.62-4.43-.82-.44-1.7-.66-2.62-.66h-1.07V42H1013v.82h-1.07c-1.42 0-2.64.51-3.65 1.52-1.01 1.01-1.55 2.23-1.6 3.65v45.43c.05 1.42.59 2.64 1.6 3.65 1.01 1.01 2.23 1.52 3.65 1.52h1.07v.82h-17.96v-.82h1.07z"/><g><path class="st0" d="M558.75 188.23c-.13.5-.27 1.01-.43 1.51a8.35 8.35 0 00-.33 1.51c-.19.32-.28.54-.28.66-.06.19-.21.32-.42.38-.22.06-.4.03-.52-.09-.32-.13-.66-.3-1.04-.52-.38-.22-.57-.49-.57-.8-.06-.38-.08-.74-.05-1.09.03-.34.08-.68.14-.99.13-.82.31-1.59.57-2.32.25-.72.44-1.5.57-2.32l.38-.95.38-.76c.13-.38.24-.74.33-1.09.09-.35.24-.68.43-.99.25-.25.38-.47.38-.66.13-.5.3-1.02.52-1.56.22-.53.43-1.05.61-1.56.31-.5.55-.96.71-1.37.16-.41.36-.83.61-1.28.13-.13.14-.25.05-.38-.09-.13-.21-.16-.33-.09-.19-.06-.27-.09-.24-.09.03 0-.05.03-.24.09-1.07.13-2.08.03-3.02-.28-.51-.13-1.06-.22-1.65-.28-.6-.06-1.15-.13-1.65-.19-.13.06-.25.08-.38.05s-.28-.05-.47-.05l-2.27-.57c-.82-.19-1.45-.5-1.89-.95-.57-.19-1.01-.66-1.32-1.42-.13-.32-.21-.65-.24-.99-.03-.35-.08-.68-.14-.99 0-.44.19-.85.57-1.23.25-.38.49-.74.71-1.09.22-.35.55-.65.99-.9l2.74-1.51c.25-.25.63-.47 1.13-.66.69-.5 1.61-.91 2.74-1.23 2.21-1.01 4.32-1.86 6.33-2.55.88-.44 1.75-.79 2.6-1.04.85-.25 1.72-.54 2.6-.85.19 0 .35-.06.47-.19.44-.13.68-.31.71-.57.03-.25.17-.57.43-.95.13-.31.19-.6.19-.85s.06-.53.19-.85l.38-1.23c.38-.57.57-1.23.57-1.99.31-.57.53-1.15.66-1.75.13-.6.25-1.15.38-1.65.19-.57.35-1.09.47-1.56.13-.47.16-.99.09-1.56.06-.13.11-.27.14-.43.03-.16.11-.33.24-.52.13-.63.19-1.21.19-1.75s.13-1.12.38-1.75c.06-.06.05-.14-.05-.24-.09-.09-.17-.14-.24-.14-.57.06-1.06.13-1.46.19-.41.06-.87.16-1.37.28-1.13.19-2.21.35-3.21.47-1.01.13-2.02.28-3.02.47l-2.46.57c-.82.19-1.67.44-2.55.76l-4.44 1.04c-.06 0-.13.02-.19.05-.06.03-.13.05-.19.05-.88.38-1.72.68-2.5.9-.79.22-1.62.52-2.5.9-.76.32-1.58.61-2.46.9-.88.28-1.76.58-2.65.9-.32.19-.61.35-.9.47a4.3 4.3 0 00-.8.47c-.57.32-1.18.6-1.84.85-.66.25-1.28.54-1.84.85-.44.13-.85.28-1.23.47-.38.19-.76.41-1.13.66-.32.19-.44.5-.38.94v.66c-.13.06-.19.13-.19.19s-.06.16-.19.28c-.32.44-.66.6-1.04.47-.63.38-1.48.63-2.55.76-.95 0-1.58-.6-1.89-1.8 0-.19-.03-.38-.09-.57 0-.5.09-.82.28-.94.06-.06.09-.11.09-.14s.06-.08.19-.14c.88-.69 1.78-1.31 2.69-1.84.91-.53 1.87-.99 2.88-1.37.57-.38 1.18-.71 1.84-.99.66-.28 1.34-.58 2.03-.9l1.89-.85c.19-.13.36-.22.52-.28.16-.06.33-.13.52-.19.5-.19 1.05-.38 1.65-.57.6-.19 1.15-.41 1.65-.66 2.77-1.01 5.36-1.86 7.75-2.55.63-.13 1.26-.27 1.89-.43.63-.16 1.29-.3 1.98-.43.94-.25 1.89-.5 2.84-.75s1.95-.47 3.02-.66c1.07-.19 2.16-.39 3.26-.61 1.1-.22 2.28-.43 3.54-.61.57-.06 1.18-.14 1.84-.24.66-.09 1.31-.17 1.94-.24a.9.9 0 00.66-.28c.19-.19.35-.28.47-.28.25-.31.63-.41 1.13-.28l.47.19c.19.19.44.25.76.19.19 0 .41.02.66.05.25.03.5.05.76.05 1.51-.19 3.04-.33 4.58-.43 1.54-.09 3.07-.17 4.58-.24 1.01 0 1.97.02 2.88.05.91.03 1.84.05 2.79.05l3.88.47c.25.13.5.18.76.14.25-.03.5-.01.76.05.82.13 1.64.27 2.46.43.82.16 1.67.33 2.55.52.5.25.98.47 1.42.66.44.19.88.41 1.32.66.5.25.9.54 1.18.85.28.32.58.7.9 1.13.31.32.49.63.52.95.03.32.08.66.14 1.04.13.44.06.88-.19 1.32-.19.38-.57.82-1.13 1.32l-1.04.95c-.5.38-1.07.74-1.7 1.09-.63.35-1.26.65-1.89.9-1.7.88-3.5 1.69-5.39 2.41-1.89.72-3.75 1.43-5.58 2.13l-9.36 3.12-5.95 1.89c-.82.25-1.58.49-2.27.71-.69.22-1.45.49-2.27.8l-1.04.38c-.32.06-.54.28-.66.66-.13.25-.22.52-.28.8-.06.28-.19.55-.38.8l-.47.85c-.06.25-.13.49-.19.71-.06.22-.22.49-.47.8a.28.28 0 00-.09.19c0 .06-.03.16-.09.28-.13.5-.32 1.06-.57 1.65-.25.6-.54 1.18-.85 1.75-.32.5-.57 1.01-.76 1.51-.19.5-.41 1.07-.66 1.7-.13.06-.17.14-.14.24.03.09.11.14.24.14.31 0 .61.03.9.09.28.06.61.13.99.19.13 0 .22-.01.28-.05.06-.03.16-.05.28-.05.31.13.61.22.9.28.28.06.58.09.9.09.38.13.72.19 1.04.19.31 0 .63.03.95.09.38 0 .77.03 1.18.09.41.06.8.09 1.18.09.38.06.79.14 1.23.24.44.09.85.21 1.23.33.5.06 1.02.13 1.56.19.53.06 1.09.16 1.65.28.31-.06.6-.03.85.09 1.26.25 2.5.49 3.73.71 1.23.22 2.47.49 3.73.8.57.13 1.13.33 1.7.61.57.28 1.13.52 1.7.71.44.13.88.3 1.32.52.44.22.85.39 1.23.52.76.32 1.48.71 2.17 1.18s1.42.96 2.17 1.47c.31.19.58.43.8.71.22.28.49.58.8.9.13.19.24.36.33.52.09.16.24.3.43.42.63 1.13.95 2.27.95 3.4 0 .5-.03.85-.09 1.04-.13.32-.28.63-.47.95-.19.32-.44.66-.76 1.04-.38.57-.84 1.06-1.37 1.46-.54.41-1.15.84-1.84 1.28-.76.57-1.64 1.04-2.65 1.42l-4.25 1.61c-.25.13-.5.22-.76.28-.25.06-.54.16-.85.28-.63.06-1.23.25-1.8.57-.32.06-.61.14-.9.24-.28.09-.58.14-.9.14-.13.06-.28.09-.47.09-.76.5-1.67.76-2.74.76-.13.06-.24.08-.33.05s-.21.02-.33.14c-.5.32-1.02.5-1.56.57-.54.06-1.09.16-1.65.28-.19.13-.38.18-.57.14-.19-.03-.38-.05-.57-.05h-.38c-.13 0-.22.03-.28.09-.51.25-1.1.38-1.8.38-.51.19-1.01.28-1.51.28s-1.01.16-1.51.47a.28.28 0 01-.19.09c-.06 0-.16.03-.28.09-1.07.13-2.21.27-3.4.43-1.2.16-2.36.3-3.5.43-.32.06-.6.11-.85.14-.25.03-.54.05-.85.05-.32.13-.65.2-.99.24-.35.03-.68.08-.99.14-.19-.06-.47-.03-.85.09-.32-.06-.61-.06-.9 0-.28.06-.55.09-.8.09-.32.06-.58.09-.8.09h-.8c-.32.06-.71.11-1.18.14-.47.03-.87-.02-1.18-.14-.13 0-.24-.02-.33-.05a.408.408 0 00-.33.05c-.19.19-.32.22-.38.09a5.42 5.42 0 00-1.18-.05c-.35.03-.68.08-.99.14-.25 0-.41-.03-.47-.09-.32-.13-.57-.16-.76-.09a6.4 6.4 0 01-.76.19c-1.32.06-2.54.06-3.64 0s-2.28-.25-3.54-.57c-.38-.19-.79-.28-1.23-.28-.32-.13-.6-.19-.85-.19s-.54-.09-.85-.28c-.38-.25-.68-.41-.9-.47-.22-.06-.49-.22-.8-.47-.13-.06-.17-.14-.14-.24.03-.09.01-.17-.05-.24-.19-.19-.19-.38 0-.57.13-.13.28-.16.47-.09.44-.13.79-.16 1.04-.09.31.25.57.28.76.09.19-.19.47-.19.85 0 .63.19 1.29.38 1.98.57.69.19 1.39.28 2.08.28.13.06.2.08.24.05.03-.03.11-.05.24-.05.76.19 1.46.27 2.13.24.66-.03 1.43-.05 2.32-.05 1.38.13 2.71.03 3.97-.28.19.06.41.09.66.09h.66c1.2-.13 2.36-.24 3.5-.33 1.13-.09 2.3-.2 3.5-.33.44-.06.88-.11 1.32-.14.44-.03.88-.11 1.32-.23 1.39-.13 2.77-.32 4.16-.57 1.39-.25 2.77-.5 4.16-.76.63-.13 1.23-.24 1.8-.33.57-.09 1.17-.2 1.8-.33.25-.13.49-.19.71-.19.22 0 .49-.06.8-.19l6.71-1.61c1.2-.32 2.42-.69 3.69-1.13 1.26-.44 2.49-.91 3.69-1.42.88-.31 1.69-.66 2.41-1.04.72-.38 1.43-.82 2.13-1.32.82-.44 1.51-.91 2.08-1.42.63-.5 1.07-1.13 1.32-1.89.06-.19.03-.41-.09-.66-.19-.82-.6-1.45-1.23-1.89-.32-.25-.63-.52-.95-.8-.32-.28-.63-.55-.94-.8-.82-.5-1.64-.96-2.46-1.37-.82-.41-1.67-.74-2.55-.99-.44-.13-.9-.27-1.37-.43-.47-.16-.93-.3-1.37-.43l-.38-.19c-.88-.44-1.81-.76-2.79-.95-.98-.19-1.94-.38-2.88-.57-.25 0-.51-.06-.76-.19-.25 0-.47-.03-.66-.09-.19-.06-.35-.06-.47 0-.51-.13-1.02-.22-1.56-.28-.54-.06-1.06-.13-1.56-.19-.32-.06-.66-.14-1.04-.24-.38-.09-.76-.11-1.13-.05h-.28c-.76-.25-1.54-.39-2.36-.43-.82-.03-1.61-.11-2.36-.24l-1.13-.19a.79.79 0 00-.47-.05c-.19.03-.35.05-.47.05-.5-.13-1.06-.2-1.65-.24-.6-.03-1.18-.08-1.75-.14-.13 0-.28.05-.47.14-.19.09-.32.18-.38.24-.13.06-.19.16-.19.28-.13.57-.32 1.1-.57 1.61-.25.5-.5 1.04-.76 1.61l-1.23 2.74c-.19.5-.39 1.02-.61 1.56-.22.54-.46.99-.71 1.37-.25.63-.38 1.1-.38 1.42-.13.63-.3 1.23-.52 1.79-.28.66-.45 1.23-.58 1.8zm-4.63-18.62c.5.06 1.01.13 1.51.19s1.04.16 1.61.28c.57.13 1.15.21 1.75.24.6.03 1.21.08 1.84.14.25.06.43.06.52 0 .09-.06.3-.09.61-.09.19 0 .35-.13.47-.38.13-.25.25-.47.38-.66.13-.19.22-.44.28-.76.31-.5.53-.96.66-1.37.13-.41.28-.77.47-1.09l1.13-2.36c.06-.25.16-.47.28-.66.13-.19.22-.41.28-.66.06-.63.31-1.2.76-1.7 0-.13.01-.24.05-.33.03-.09.05-.17.05-.24.19-.19.16-.28-.09-.28-.13.06-.27.11-.43.14-.16.03-.3.11-.43.24-.82.32-1.53.6-2.13.85-.6.25-1.34.6-2.22 1.04-.88.25-1.73.54-2.55.85-.82.32-1.67.66-2.55 1.04-.88.44-1.76.88-2.65 1.32-.88.44-1.7 1.01-2.46 1.7-.32.13-.6.24-.85.33-.25.09-.44.27-.57.52-.32.32-.32.54 0 .66a.9.9 0 00.66.28c.31.13.6.2.85.24.25.03.5.11.76.24l2.01.28zm42.06-31.48c-.38.06-.77.08-1.18.05-.41-.03-.8-.11-1.18-.24-.13 0-.27-.03-.43-.09a.772.772 0 00-.52 0c-.82-.06-1.64-.11-2.46-.14-.82-.03-1.67-.02-2.55.05-1.76 0-3.53.03-5.29.09-1.77.06-3.53.19-5.29.38-.25 0-.41.03-.47.09-.38.13-.57.28-.57.47-.13.7-.27 1.31-.43 1.84-.16.54-.17 1.15-.05 1.84-.06.13-.14.27-.24.43-.09.16-.14.33-.14.52 0 .13-.03.25-.09.38s-.06.25 0 .38c0 .5-.06.96-.19 1.37-.13.41-.25.87-.38 1.37-.13.88-.32 1.72-.57 2.51-.25.79-.44 1.62-.57 2.5-.13.38-.25.74-.38 1.09-.13.35-.28.68-.47.99-.06.19-.06.44 0 .75 0 .13.09.19.28.19.38 0 .69-.13.94-.38 1.07-.31 2.17-.63 3.31-.94 1.13-.32 2.27-.72 3.4-1.23.44-.13.85-.24 1.23-.33s.76-.2 1.13-.33c.69-.25 1.38-.49 2.08-.71.69-.22 1.45-.46 2.27-.71.44-.13.91-.3 1.42-.52.5-.22 1.04-.39 1.61-.52.5-.13.98-.32 1.42-.57.44-.25.95-.41 1.51-.47.69-.38 1.47-.72 2.32-1.04.85-.31 1.72-.63 2.6-.95.25-.13.53-.23.85-.33.31-.09.6-.24.85-.43l1.89-.95c.57-.31 1.1-.57 1.61-.76.5-.19.98-.44 1.42-.76.57-.31 1.13-.82 1.7-1.51.13-.25.09-.41-.09-.47-.19-.25-.44-.39-.76-.43-.32-.03-.63-.11-.95-.24-.69-.31-1.43-.6-2.22-.85-.79-.25-1.62-.44-2.5-.57l-.57-.19c-.5-.19-.88-.28-1.13-.28l-2.17-.35zM613.57 183.6c-.69-.13-1.4-.24-2.13-.33-.73-.09-1.34-.36-1.84-.8-.69-.69-1.34-1.45-1.94-2.27-.6-.82-.83-1.73-.71-2.74 0-.13.02-.39.05-.8.03-.41.11-.68.24-.8l.19-.57c.32-.76.54-1.26.66-1.51.13-.25.41-.72.85-1.42 1.07-1.64 2.46-3.15 4.16-4.54.5-.44 1.07-.86 1.7-1.28.63-.41 1.32-.8 2.08-1.18.19 0 .44-.09.76-.28.5-.19 1.02-.16 1.56.09.53.25.96.54 1.28.85l.38.95c.19 1.51-.19 2.74-1.13 3.69-.69.82-1.43 1.61-2.22 2.36-.79.75-1.62 1.48-2.5 2.17-.13.13-.3.25-.52.38-.22.13-.39.25-.52.38-.19.19-.43.3-.71.33-.28.03-.58.08-.9.14-.5.32-.94.22-1.32-.28l-.38-.28h-.19c-.06 0-.09.03-.09.09-.32.44-.49.95-.52 1.51-.03.57-.05 1.07-.05 1.51.06.32.28.66.66 1.04.25.32.55.54.9.66.35.13.68.19.99.19.25.06.6.09 1.04.09.5-.06 1.05-.09 1.65-.09.6 0 1.21-.13 1.84-.38 2.33-.57 4.44-1.26 6.33-2.08 1.89-.82 3.81-1.67 5.77-2.55 1.01-.5 1.94-.99 2.79-1.47.85-.47 1.72-.93 2.6-1.37.57-.32.91-.52 1.04-.61.13-.09.5-.36 1.13-.8.31-.31.49-.46.52-.43.03.03.3-.05.8-.24.13-.13.17-.14.14-.05-.03.09-.02.24.05.43.06.25.14.55.24.9.09.35.02.61-.24.8-.44.44-.63.68-.57.71.06.03-.13.23-.57.61-.95.69-1.89 1.29-2.84 1.8-.94.5-1.92 1.07-2.93 1.7-.69.32-1.34.63-1.94.95-.6.32-1.18.6-1.75.85-1.26.5-2.54 1.02-3.83 1.56s-2.63.96-4.02 1.27l-2.74.76c-.69.19-1.23.3-1.61.33-.37.03-.93.05-1.69.05zm-1.23-10.12c1.07-.63 2.08-1.39 3.02-2.27.94-.88 1.86-1.86 2.74-2.93-.06 0-.13.02-.19.05-.06.03-.13.05-.19.05-1.2.5-2.22 1.1-3.07 1.79-.85.7-1.53 1.58-2.03 2.65-.06 0-.15.22-.28.66z"/><path class="st0" d="M649.3 167.34c0 .13-.02.22-.05.28-.03.06-.05.16-.05.28 0 .13-.06.22-.19.28-.13.06-.22.06-.28 0a.28.28 0 01-.19-.09c-.32-.25-.66-.39-1.04-.43-.38-.03-.79-.02-1.23.05-.94.25-1.91.54-2.88.85-.98.32-1.91.72-2.79 1.23-.57.25-1.2.66-1.89 1.23-.38.32-.32.57.19.76.25.13.44.19.57.19.38.13.76.24 1.13.33.38.09.79.2 1.23.33.57.13 1.12.28 1.65.47.53.19 1.09.38 1.65.57.44.19.79.3 1.04.33.25.03.6.21 1.04.52.44.25.82.35 1.13.28 1.01-.25 2.08-.47 3.21-.66.38-.13.74-.22 1.09-.28.35-.06.74-.13 1.18-.19.19 0 .57-.06 1.13-.19.57-.13 1.17-.27 1.8-.43.63-.16 1.23-.3 1.8-.43.57-.13.95-.19 1.13-.19s.38-.03.57-.09c.19-.06.38-.09.57-.09.31-.19.5-.22.57-.09l1.51-.24c.63-.09 1.01.02 1.13.33.38.32.5.58.38.8-.13.22-.35.39-.66.52-.32.13-.68.22-1.09.28-.41.06-.74.09-.99.09-.44 0-.87.06-1.28.19-.41.13-.8.25-1.18.38l-5.39 1.23c-.57.13-1.32.33-2.27.61-.95.28-1.51.52-1.7.71-.19.13-.17.33.05.61.22.28.36.52.42.71.13.32.17.55.14.71-.03.16-.05.36-.05.61-.06.69-.17 1.24-.33 1.65-.16.41-.55.96-1.18 1.65-.57.69-1.18 1.29-1.84 1.8-.66.5-1.34 1.01-2.03 1.51-.76.5-1.53.96-2.32 1.37-.79.41-1.59.77-2.41 1.09-.13.13-.25.19-.38.19-.69.13-1.34.28-1.94.47-.6.19-1.21.28-1.84.28-.19 0-.35.03-.47.09-.13.06-.25.09-.38.09-.5.06-1.01.05-1.51-.05-.5-.09-.98-.3-1.42-.61-.31-.19-.55-.39-.71-.61-.16-.22-.3-.49-.43-.8l-.28-1.42c0-.19.06-.34.19-.47.32-.94.76-1.7 1.32-2.27.69-.63 1.37-1.21 2.03-1.75.66-.53 1.37-1.02 2.13-1.46.38-.19.72-.41 1.04-.66.31-.25.69-.44 1.13-.57.13-.06.22-.09.28-.09.06 0 .13-.03.19-.09a46 46 0 012.69-1.42c.91-.44 1.81-.82 2.69-1.13.13 0 .19-.06.19-.19-.06-.06-.09-.05-.09.05 0 .09-.03.11-.09.05-.57-.19-1.15-.39-1.75-.61a14.3 14.3 0 00-1.75-.52l-1.8-.47c-.44-.06-.88-.22-1.32-.47-1.26-.44-1.95-1.42-2.08-2.93-.19-1.01.09-1.86.85-2.55.19-.19.38-.36.57-.52.19-.16.38-.3.57-.43.69-.5 1.43-.93 2.22-1.28.79-.34 1.56-.68 2.32-.99 1.45-.5 2.74-.85 3.88-1.04.13 0 .27-.02.43-.05.16-.03.3-.05.43-.05.69-.13 1.2.13 1.51.76 0 .06.06.22.19.47.45.52.58 1.05.39 1.62zm-14.94 20.13c.32 0 .63-.03.95-.09.31-.06.63-.13.95-.19 1.2-.25 2.52-.69 3.97-1.32.31-.19.63-.38.94-.57.31-.19.63-.35.95-.47l.66-.47 2.36-1.61c.95-.69 1.83-1.54 2.65-2.55.13-.13.19-.3.19-.52 0-.22.03-.39.09-.52.13-.13.14-.16.05-.09-.09.06-.08.03.05-.09 0-.13-.09-.34-.28-.66-.19-.31-.35-.44-.47-.38-.82.32-1.58.66-2.27 1.04s-1.45.76-2.27 1.13c-.32.13-.61.3-.9.52-.28.22-.58.39-.9.52l-.57.28-1.98 1.13c-.13.13-.28.22-.47.28-.19.06-.35.16-.47.28-.38.32-.77.61-1.18.9-.41.28-.8.58-1.18.9a6.98 6.98 0 00-1.89 2.17l.09.19c.49.13.81.19.93.19z"/><path class="st0" d="M663.66 167.62c.06-.38.14-.72.24-1.04.09-.31.17-.63.24-.94 0 .06.06-.11.19-.52.13-.41.28-.93.47-1.56.19-.63.38-1.28.57-1.94.19-.66.38-1.21.57-1.65.31-.69.5-1.18.57-1.47.06-.28.25-.77.57-1.46.13-.19.28-.47.47-.85.19-.38.38-.79.57-1.23.19-.44.35-.85.47-1.23.13-.38.19-.66.19-.85l-.09.09h-.09c-.13-.13-.22-.09-.28.09l-1.7.57-2.65.94c-.32.13-.52.19-.61.19h-.19c-.03 0-.08.02-.14.05-.06.03-.22.11-.47.24-.32.13-.68.24-1.09.33-.41.09-.87.21-1.37.33-.25 0-.53-.13-.85-.38-.25-.13-.3-.33-.14-.61.16-.28.21-.46.14-.52l-.09-.09c-.06-.44.05-.69.33-.75.28-.06.55-.09.8-.09l1.89-.66c.06-.06.13-.14.19-.24.06-.09.19-.08.38.05.5-.25.91-.41 1.23-.47.25-.13.44-.19.57-.19.38-.25.77-.43 1.18-.52.41-.09.8-.17 1.18-.24.13-.06.25-.13.38-.19s.25-.09.38-.09c.31-.06.6-.14.85-.24.25-.09.54-.2.85-.33.44-.19.66-.34.66-.47 0-.06.03-.13.09-.19v-.09l.57-1.42 4.16-10.59c.06-.13.13-.3.19-.52.06-.22.16-.49.28-.8l.28-.47c.13-.31.5-.47 1.13-.47.63 0 1.1.13 1.42.38.06.13.14.28.24.47.09.19.2.38.33.57.06.13.13.32.19.57.06.25.03.47-.09.66a57.086 57.086 0 00-2.74 5.48c-.76 1.76-1.58 3.63-2.46 5.58-.13.13-.11.17.05.14s.27-.02.33.05c1.32-.31 2.35-.54 3.07-.66.72-.13 1.69-.35 2.88-.66.38 0 .72-.08 1.04-.24.31-.16.63-.14.95.05a.79.79 0 01.47-.05c.19.03.35-.02.47-.14.57-.19 1.13-.16 1.7.09.25-.13.44-.16.57-.09.38-.19.74-.2 1.09-.05.35.16.74.24 1.18.24.13-.06.17-.03.14.09-.03.13-.02.19.05.19.19 0 .3.05.33.14.03.09-.02.14-.14.14-.32.13-.44.27-.38.43.06.16.06.24 0 .24-.5.13-.98.2-1.42.24-.44.03-.91.14-1.42.33-.32 0-.61.02-.9.05-.28.03-.58.11-.9.24l-.38.19c-.69-.06-1.43.02-2.22.24-.79.22-1.56.39-2.32.52-.38.13-.68.24-.9.33-.22.09-.49.21-.8.33l-1.61.28-1.42.47c-.32 0-.49.06-.52.19-.03.13-.11.25-.24.38-.06.06-.17.32-.33.76s-.32.91-.47 1.42c-.16.51-.33.98-.52 1.42-.19.44-.32.72-.38.85-.76 2.21-1.51 4.29-2.27 6.24a60.18 60.18 0 00-1.98 6c-.57 2.05-1.04 4.21-1.42 6.47-.38 2.27-.57 4.79-.57 7.56 0 1.51.03 2.6.09 3.26.06.66.14 1.12.24 1.37.09.25.19.41.28.47.09.06.2.22.33.47.38.06.71.2.99.43.28.22.46.46.52.71.06.25-.02.49-.24.71-.22.22-.65.33-1.28.33-.13 0-.25-.06-.38-.19-.88-.31-1.43-.55-1.65-.71-.22-.16-.46-.55-.71-1.18-.5-.88-.8-2.08-.9-3.59a68.37 68.37 0 01-.14-3.97l.19-3.5c0-.63.03-1.07.09-1.32s.16-.69.28-1.32c.06-.82.24-1.94.52-3.36s.55-2.54.8-3.36l.2-.89zM738.14 136.72c0-.06-.02-.11-.05-.14a.198.198 0 01-.05-.14c-.06-.13-.06-.28 0-.47l.57-.57c.19-.13.53-.25 1.04-.38h.66c1.13-.13 2.16 0 3.07.38.91.38 1.78.92 2.6 1.61.44.32.83.66 1.18 1.04s.68.79.99 1.23c.5.69.9 1.4 1.18 2.13.28.72.52 1.5.71 2.32.25 1.39.35 2.84.28 4.35v1.6c0 .38-.03.72-.09 1.04-.06.32-.13.65-.19.99-.06.35-.16.84-.28 1.47-.13.82-.32 1.62-.57 2.41-.25.79-.47 1.59-.66 2.41-.44.94-.84 1.91-1.18 2.88-.35.98-.77 1.94-1.28 2.88-.19.5-.4.98-.61 1.42-.22.44-.49.85-.8 1.23l-.19.38c-.19.69-.46 1.36-.8 1.99-.35.63-.74 1.2-1.18 1.7-.25.38-.49.74-.71 1.09-.22.35-.39.71-.52 1.09-.19.38-.39.79-.61 1.23-.22.44-.49.82-.8 1.13-.38.5-.69.96-.95 1.37-.25.41-.54.87-.85 1.37-.25.32-.47.61-.66.9s-.44.55-.76.8c-.19 0-.28.09-.28.28-.13.5-.38.9-.76 1.18-.38.28-.66.65-.85 1.09-.13.25-.25.46-.38.61-.13.16-.25.33-.38.52-.13.25-.28.44-.47.57-.32.32-.58.6-.8.85-.22.25-.39.54-.52.85-.06.38-.22.63-.47.75-.44.32-.88.85-1.32 1.61-.25.32-.5.63-.76.95-.25.32-.54.6-.85.85l-.28.28c-.32.51-.69.96-1.13 1.37-.44.41-.88.84-1.32 1.28l-1.13 1.13c-.38.38-.79.73-1.23 1.04-.19.19-.47.38-.85.57-.19.19-.38.36-.57.52-.19.16-.38.36-.57.61l-.61.61c-.22.22-.43.39-.61.52-.44.32-.88.58-1.32.8-.44.22-.85.49-1.23.8-1.77 1.01-3.56 1.64-5.39 1.89-.32.13-.65.17-.99.14-.35-.03-.71-.08-1.09-.14-1.89-.19-3.66-.82-5.29-1.89-.25-.25-.5-.47-.76-.66-.25-.19-.47-.44-.66-.76l-.57-.75c-.19-.25-.35-.54-.47-.85-.25-.63-.38-1.17-.38-1.61-.06-.5-.14-1.02-.24-1.56-.09-.54-.21-1.06-.33-1.56-.19-.44-.22-.88-.09-1.32.31-.94.38-1.83.19-2.65 0-.5.03-.88.09-1.13.19-.69.31-1.35.38-1.98.06-.63.22-1.26.47-1.89 0-.25.02-.49.05-.71.03-.22.05-.42.05-.61 0-.44.13-.79.38-1.04.13-.13.19-.28.19-.47l.19-1.13c0-.44.13-.82.38-1.13.13-.25.25-.63.38-1.13.25-1.2.53-2.36.85-3.5.31-1.13.76-2.24 1.32-3.31l.66-1.61c0-.38.19-.66.57-.85.25-.13.31-.31.19-.57-.06-.19 0-.38.19-.57.13-.13.19-.28.19-.47-.06-.19-.06-.35 0-.47.06-.13.13-.25.19-.38l.47-.95c.13-.13.19-.27.19-.43 0-.16.13-.3.38-.43s.31-.28.19-.47c-.13-.19-.13-.34 0-.47.13-.25.25-.57.38-.95.13-.5.3-.95.52-1.32.22-.38.46-.79.71-1.23.13-.25.41-.6.85-1.04.25-.25.31-.47.19-.66 0-.13.01-.22.05-.28.03-.06.05-.16.05-.28.13-.44.27-.83.42-1.18.16-.34.36-.71.61-1.09.19-.32.38-.68.57-1.09.19-.41.47-.77.85-1.09l.28-.57c.57-1.38 1.29-2.66 2.17-3.83.88-1.17 1.8-2.35 2.74-3.54.57-.69 1.13-1.34 1.7-1.94.57-.6 1.2-1.18 1.89-1.75.38-.31.76-.63 1.13-.95.38-.31.79-.63 1.23-.94l.47-.28c1.32-.88 2.68-.91 4.06-.09.63.32 1.2.82 1.7 1.51l.19.28c0 .32-.13.47-.38.47-.19 0-.38.02-.57.05-.19.03-.38-.02-.57-.14-.32-.06-.73-.03-1.23.09-.82.32-1.42.73-1.8 1.23-.32.25-.61.49-.9.71-.28.22-.58.49-.9.8-.51.32-.88.63-1.13.95-.5.5-.96 1.02-1.37 1.56-.41.54-.87 1.06-1.37 1.56-.19.19-.38.41-.57.66-.19.25-.38.5-.57.76l-2.84 4.35-.57 1.04c-.51.82-.96 1.62-1.37 2.41-.41.79-.84 1.62-1.28 2.5-.44.82-.85 1.64-1.23 2.46s-.76 1.67-1.13 2.55c-.5 1.01-.96 2.02-1.37 3.02-.41 1.01-.84 2.05-1.28 3.12-.38 1.01-.74 1.98-1.09 2.93-.35.95-.68 1.92-.99 2.93-.32 1.07-.6 2.1-.85 3.07-.25.98-.54 2-.85 3.07-.13.5-.27.98-.43 1.42-.16.44-.21.92-.14 1.42l-.09.09c-.13.57-.21 1.12-.24 1.65-.03.54-.11 1.06-.24 1.56-.13.69-.19 1.36-.19 1.98v1.99c-.06.19-.08.41-.05.66.03.25.05.47.05.66 0 .63.08 1.21.24 1.75.16.54.36 1.09.61 1.65.25.63.72 1.23 1.42 1.79.25.13.5.25.76.38.25.13.53.19.85.19.5 0 .98-.02 1.42-.05.44-.03.88-.11 1.32-.24 1.76-.38 3.4-1.1 4.91-2.17 1.07-.69 2.06-1.42 2.98-2.17.91-.75 1.81-1.57 2.69-2.46l1.61-1.51c.5-.38.94-.79 1.32-1.23.38-.44.76-.91 1.13-1.42.06-.06.13-.14.19-.24.06-.09.16-.17.28-.24.57-.5 1.07-1.07 1.51-1.7l1.32-1.89c.13-.13.19-.22.19-.28.25-.19.5-.39.76-.61.25-.22.47-.49.66-.8.19-.25.36-.5.52-.75.16-.25.36-.54.61-.85l1.32-1.8c.31-.44.61-.9.9-1.37.28-.47.68-.9 1.18-1.28l.19-.38c.25-.5.55-.99.9-1.47.35-.47.71-.96 1.09-1.46l.76-1.42c.13-.31.27-.63.43-.95.16-.31.39-.6.71-.85l1.32-2.65c.13-.13.2-.28.24-.47.03-.19.11-.38.24-.57.38-.38.63-.82.76-1.32 0-.13.03-.24.09-.33.06-.09.13-.2.19-.33.5-.69.85-1.42 1.04-2.17.06-.19.14-.39.24-.61.09-.22.17-.43.24-.61.13-.19.25-.38.38-.57.13-.19.19-.44.19-.76a.9.9 0 01.28-.66c.13-.31.27-.66.43-1.04.16-.38.27-.76.33-1.13 0-.25.03-.47.09-.66.06-.19.13-.38.19-.57.13-.5.25-1.01.38-1.51s.25-1.01.38-1.51c.06-.19.13-.38.19-.57.06-.19.09-.41.09-.66.06-.19.08-.38.05-.57a3.28 3.28 0 01-.05-.47l.19-1.51c0-.19.01-.39.05-.61.03-.22.05-.43.05-.61.06-.63.06-1.29 0-1.98-.19-1.01-.41-1.99-.66-2.93-.13-.32-.27-.63-.43-.95-.16-.31-.3-.63-.42-.95-.13-.31-.33-.58-.61-.8a1.89 1.89 0 01-.61-.8 3.16 3.16 0 00-.85-.61c-.32-.16-.63-.3-.95-.43-.25-.13-.57-.19-.94-.19-.32-.06-.63-.08-.95-.05-.32.03-.63.02-.94-.05-.32-.06-.63-.13-.95-.19-.32-.06-.63-.09-.94-.09v.09zM770.37 161.95c.06.13.13.3.19.52.06.22.08.44.05.66-.03.22-.11.4-.24.52-.13.13-.35.16-.66.09-.06 0-.16-.02-.28-.05-.13-.03-.19.02-.19.14-.38.13-.96.19-1.75.19s-1.34.03-1.65.09c-.88.13-1.95.3-3.21.52-1.26.22-2.46.49-3.59.8-.32.06-.57.2-.76.43s-.38.46-.57.71l-.19.66a89.7 89.7 0 00-1.23 3.59c-.38 1.2-.73 2.4-1.04 3.59-.32 1.32-.63 2.63-.94 3.92-.32 1.29-.63 2.6-.95 3.92-.06.32-.09.6-.09.85s-.06.54-.19.85c-.13.5-.24 1.02-.33 1.56-.09.54-.24 1.06-.43 1.56 0 .5-.05.99-.14 1.47-.09.47-.17.96-.24 1.46v.76c.13.38.09.69-.09.95-.13.5-.17 1.04-.14 1.61.03.57.05 1.13.05 1.7l.09.66c.06.5.14 1.01.24 1.51.09.5.27 1.01.52 1.51.06 0 .09.03.09.09.06.13.06.25 0 .38s-.16.19-.28.19c-.19.06-.54.09-1.04.09-.57 0-1.04-.22-1.42-.66l-.85-1.7-.19-.57c.06-.5 0-1.04-.19-1.61.06-.5.09-.99.09-1.47v-1.46l.57-4.73c-.13-.44-.06-.82.19-1.13 0-.44.08-.85.24-1.23.16-.38.17-.82.05-1.32 0-.13.05-.22.14-.28.09-.06.11-.16.05-.28l1.13-4.44c0-.69.16-1.45.47-2.27v-.85c0-.25.03-.53.09-.85.06-.31.16-.57.28-.76.13-.19.25-.38.38-.57.13-.5.27-1.06.42-1.65.16-.6.3-1.18.43-1.75.06-.31.13-.61.19-.9.06-.28.22-.58.47-.9V168c.13-.13.2-.35.24-.66.03-.31.01-.47-.05-.47h-.38c-.19 0-.32.03-.38.09-.76.13-1.53.28-2.32.47-.79.19-1.46.38-2.03.57-.31.13-.52.17-.61.14-.09-.03-.19-.06-.28-.09-.09-.03-.2-.05-.33-.05s-.31.09-.57.28l-1.13.38c-.44.13-.72.09-.85-.09-.19-.19-.24-.36-.14-.52.09-.16.08-.39-.05-.71-.13-.63-.03-1.04.28-1.23.06 0 .09-.01.09-.05 0-.03.03-.05.09-.05.69-.19 1.2-.28 1.51-.28.32 0 .82-.16 1.51-.47.44-.06.66-.11.66-.14s.25-.11.76-.24c.44-.13.99-.28 1.65-.47.66-.19 1.31-.31 1.94-.38.25-.25.47-.38.66-.38h.66c.13-.13.28-.25.47-.38.19-.13.28-.31.28-.57l.19-.19c.06-.31.13-.65.19-.99.06-.35.25-.68.57-.99.13-.31.24-.63.33-.95.09-.31.17-.66.24-1.04.13-.13.19-.24.19-.33s.03-.2.09-.33c.13-.19.27-.43.43-.71.16-.28.3-.58.43-.9l.76-1.61c.13-.44.28-.86.47-1.27.19-.41.35-.8.47-1.18.31-.69.63-1.4.94-2.13.31-.72.69-1.47 1.13-2.22.25-.5.5-1.01.76-1.51.25-.5.5-1.04.76-1.61.38-.69.77-1.4 1.18-2.13.41-.72.87-1.4 1.37-2.03l.57-1.13c.38-.57.77-1.09 1.18-1.56.41-.47.87-.96 1.37-1.47l1.04-.66c.25-.19.55-.34.9-.47.35-.13.77-.13 1.28 0h.09c1.26.25 2.27.71 3.02 1.37.76.66 1.39 1.53 1.89 2.6.38.76.57 1.48.57 2.17.19.5.09.98-.28 1.42-.38.44-.82.6-1.32.47-.51-.31-.91-.61-1.23-.9-.32-.28-.47-.74-.47-1.37-.06-.63-.38-1.32-.94-2.08-.13-.25-.35-.44-.66-.57-.63 0-1.2.25-1.7.76-.63.44-1.13 1.01-1.51 1.7-1.95 2.52-3.47 5.01-4.54 7.47-.44.88-.9 1.76-1.37 2.65-.47.88-.9 1.8-1.28 2.74-.13.44-.28.91-.47 1.42-.19.5-.41.98-.66 1.42-.25.5-.5 1.06-.76 1.65-.25.6-.47 1.18-.66 1.75l-.57 1.8c-.06.13-.19.27-.38.42-.19.16-.22.27-.09.33l5.39-.94h2.13c.91 0 1.62.03 2.13.09.31 0 .6.03.85.09.25.08.5.14.75.2z"/></g><g><path class="st0" d="M120.61 237.72c-64.52 0-117.02-52.49-117.02-117.02S56.09 3.69 120.61 3.69s117.02 52.49 117.02 117.02-52.5 117.01-117.02 117.01zm0-227.32c-60.82 0-110.3 49.48-110.3 110.31s49.48 110.3 110.3 110.3 110.3-49.48 110.3-110.3S181.43 10.4 120.61 10.4z"/><path class="st0" d="M120.61 226.03c-58.07 0-105.32-47.25-105.32-105.32S62.54 15.39 120.61 15.39s105.32 47.25 105.32 105.32-47.25 105.32-105.32 105.32zm0-207.96c-56.59 0-102.64 46.04-102.64 102.64s46.04 102.64 102.64 102.64c56.59 0 102.64-46.04 102.64-102.64S177.2 18.07 120.61 18.07z"/><circle class="st0" cx="40.19" cy="172.02" r="1.31"/><circle class="st0" cx="50.32" cy="185.21" r="1.31"/><circle class="st0" cx="62.59" cy="196.43" r="1.31"/><circle class="st0" cx="76.62" cy="205.36" r="1.31"/><circle class="st0" cx="91.99" cy="211.71" r="1.31"/><circle class="st0" cx="108.22" cy="215.3" r="1.31"/><circle class="st0" cx="124.84" cy="216.01" r="1.31"/><circle class="st0" cx="141.32" cy="213.83" r="1.31"/><circle class="st0" cx="157.18" cy="208.82" r="1.31"/><circle class="st0" cx="171.92" cy="201.13" r="1.31"/><circle class="st0" cx="185.11" cy="191" r="1.31"/><circle class="st0" cx="196.33" cy="178.73" r="1.31"/><circle class="st0" cx="205.26" cy="164.7" r="1.31"/><circle class="st0" cx="211.61" cy="149.33" r="1.31"/><circle class="st0" cx="215.2" cy="133.09" r="1.31"/><circle class="st0" cx="215.91" cy="116.48" r="1.31"/><circle class="st0" cx="213.73" cy="99.99" r="1.31"/><circle class="st0" cx="208.72" cy="84.14" r="1.31"/><circle class="st0" cx="201.03" cy="69.39" r="1.31"/><circle class="st0" cx="190.9" cy="56.21" r="1.31"/><circle class="st0" cx="178.63" cy="44.98" r="1.31"/><circle class="st0" cx="164.6" cy="36.06" r="1.31"/><circle class="st0" cx="149.23" cy="29.7" r="1.31"/><circle class="st0" cx="133" cy="26.12" r="1.31"/><circle class="st0" cx="116.38" cy="25.4" r="1.31"/><circle class="st0" cx="99.9" cy="27.58" r="1.31"/><circle class="st0" cx="84.04" cy="32.6" r="1.31"/><circle class="st0" cx="69.3" cy="40.28" r="1.31"/><circle class="st0" cx="56.11" cy="50.42" r="1.31"/><circle class="st0" cx="44.88" cy="62.69" r="1.31"/><circle class="st0" cx="35.96" cy="76.72" r="1.31"/><circle class="st0" cx="29.61" cy="92.08" r="1.31"/><circle class="st0" cx="26.02" cy="108.32" r="1.31"/><circle class="st0" cx="25.3" cy="124.94" r="1.31"/><circle class="st0" cx="27.49" cy="141.42" r="1.31"/><circle class="st0" cx="32.5" cy="157.28" r="1.31"/></g><path class="st0" d="M120.6 43.32l-21.29 77.12 21.31 77.66 21.29-77.66-21.31-77.12zm.02 87.46c-5.58 0-10.07-4.5-10.07-10.07 0-5.55 4.5-10.07 10.07-10.07 5.55 0 10.07 4.52 10.07 10.07 0 5.57-4.52 10.07-10.07 10.07z"/></svg>